<svg width="36" height="36" viewBox="0 0 36 36" fill="none" xmlns="http://www.w3.org/2000/svg">
<g id="Group 209">
<path id="Rectangle 661" d="M26.7692 0H9.23077C4.13276 0 0 4.13276 0 9.23077V26.7692C0 31.8672 4.13276 36 9.23077 36H26.7692C31.8672 36 36 31.8672 36 26.7692V9.23077C36 4.13276 31.8672 0 26.7692 0Z" fill="#FFF3DF"/>
<g id="noun_Happy_1563582">
<path id="Path 193" d="M15.4876 15.8461C15.6644 15.8461 15.8339 15.9163 15.9589 16.0413C16.0839 16.1663 16.1541 16.3358 16.1541 16.5125C16.1541 16.6893 16.2243 16.8588 16.3493 16.9838C16.4743 17.1088 16.6438 17.179 16.8205 17.179C16.9973 17.179 17.1668 17.1088 17.2918 16.9838C17.4168 16.8588 17.487 16.6893 17.487 16.5125C17.4758 15.9896 17.2601 15.4918 16.8863 15.1259C16.5125 14.7601 16.0102 14.5552 15.4872 14.5552C14.9641 14.5552 14.4618 14.7601 14.088 15.1259C13.7142 15.4918 13.4985 15.9896 13.4873 16.5125C13.4873 16.6893 13.5575 16.8588 13.6825 16.9838C13.8075 17.1088 13.977 17.179 14.1538 17.179C14.3305 17.179 14.5 17.1088 14.625 16.9838C14.75 16.8588 14.8202 16.6893 14.8202 16.5125C14.8202 16.4249 14.8375 16.3382 14.871 16.2573C14.9046 16.1764 14.9538 16.1028 15.0158 16.0409C15.0777 15.979 15.1513 15.93 15.2323 15.8965C15.3133 15.8631 15.4 15.8459 15.4876 15.8461Z" fill="#FBB03B"/>
<path id="Path 194" d="M20.8214 14.5137C20.2908 14.5137 19.7821 14.7244 19.4069 15.0996C19.0318 15.4747 18.821 15.9835 18.821 16.514C18.821 16.6908 18.8913 16.8603 19.0162 16.9853C19.1412 17.1103 19.3108 17.1805 19.4875 17.1805C19.6643 17.1805 19.8338 17.1103 19.9588 16.9853C20.0838 16.8603 20.154 16.6908 20.154 16.514C20.154 16.3373 20.2242 16.1677 20.3492 16.0428C20.4742 15.9178 20.6437 15.8475 20.8204 15.8475C20.9972 15.8475 21.1667 15.9178 21.2917 16.0428C21.4167 16.1677 21.4869 16.3373 21.4869 16.514C21.4869 16.6908 21.5571 16.8603 21.6821 16.9853C21.8071 17.1103 21.9766 17.1805 22.1534 17.1805C22.3301 17.1805 22.4996 17.1103 22.6246 16.9853C22.7496 16.8603 22.8198 16.6908 22.8198 16.514C22.8198 15.9838 22.6093 15.4753 22.2346 15.1002C21.8599 14.7251 21.3516 14.5142 20.8214 14.5137Z" fill="#FBB03B"/>
<path id="Path 195" d="M18.1543 9.84619C16.572 9.84619 15.0253 10.3154 13.7096 11.1945C12.394 12.0736 11.3686 13.3231 10.763 14.7849C10.1575 16.2468 9.99909 17.8554 10.3078 19.4073C10.6165 20.9592 11.3784 22.3847 12.4973 23.5036C13.6161 24.6225 15.0417 25.3844 16.5936 25.6931C18.1455 26.0018 19.754 25.8434 21.2159 25.2379C22.6778 24.6323 23.9272 23.6069 24.8063 22.2913C25.6854 20.9756 26.1546 19.4288 26.1546 17.8465C26.1546 16.7959 25.9477 15.7556 25.5456 14.7849C25.1436 13.8143 24.5543 12.9323 23.8114 12.1894C23.0685 11.4465 22.1865 10.8572 21.2159 10.4552C20.2453 10.0531 19.2049 9.84619 18.1543 9.84619ZM18.1543 24.513C16.8358 24.513 15.5469 24.122 14.4507 23.3895C13.3544 22.657 12.4999 21.6158 11.9953 20.3977C11.4908 19.1795 11.3588 17.8391 11.616 16.546C11.8732 15.2528 12.5081 14.0649 13.4404 13.1326C14.3728 12.2003 15.5606 11.5654 16.8538 11.3081C18.1469 11.0509 19.4873 11.1829 20.7055 11.6875C21.9236 12.1921 22.9648 13.0465 23.6973 14.1428C24.4298 15.2391 24.8208 16.528 24.8208 17.8465C24.8208 18.722 24.6483 19.5889 24.3133 20.3977C23.9783 21.2065 23.4872 21.9414 22.8682 22.5604C22.2492 23.1795 21.5143 23.6705 20.7055 24.0055C19.8967 24.3406 19.0298 24.513 18.1543 24.513Z" fill="#FBB03B"/>
<path id="Path 196" d="M20.3483 19.3732L19.9588 19.7646C19.4722 20.2281 18.8258 20.4867 18.1537 20.4867C17.4816 20.4867 16.8353 20.2281 16.3487 19.7646L15.9591 19.3732C15.8328 19.2543 15.6651 19.1893 15.4917 19.192C15.3182 19.1946 15.1526 19.2647 15.0299 19.3874C14.9073 19.51 14.8372 19.6756 14.8346 19.8491C14.8319 20.0225 14.8969 20.1902 15.0158 20.3165L15.4071 20.7061C15.7679 21.0678 16.1965 21.3548 16.6683 21.5507C17.1402 21.7465 17.6461 21.8473 18.157 21.8473C18.6678 21.8473 19.1737 21.7465 19.6456 21.5507C20.1174 21.3548 20.546 21.0678 20.9068 20.7061L21.2981 20.3165C21.3632 20.2553 21.4154 20.1816 21.4514 20.0999C21.4875 20.0181 21.5068 19.93 21.5082 19.8406C21.5095 19.7513 21.4929 19.6626 21.4594 19.5798C21.4258 19.497 21.376 19.4217 21.3128 19.3586C21.2496 19.2954 21.1744 19.2455 21.0915 19.212C21.0087 19.1784 20.92 19.1618 20.8307 19.1632C20.7413 19.1645 20.6532 19.1838 20.5714 19.2199C20.4897 19.256 20.416 19.3081 20.3548 19.3732H20.3483Z" fill="#FBB03B"/>
</g>
</g>
</svg>
