<svg width="36" height="36" viewBox="0 0 36 36" fill="none" xmlns="http://www.w3.org/2000/svg">
<g id="Group 208">
<path id="Rectangle 660" d="M26.7692 0H9.23077C4.13276 0 0 4.13276 0 9.23077V26.7692C0 31.8672 4.13276 36 9.23077 36H26.7692C31.8672 36 36 31.8672 36 26.7692V9.23077C36 4.13276 31.8672 0 26.7692 0Z" fill="#FFF3DF"/>
<g id="Group 179">
<path id="Path 189" d="M27.0617 16.5386L26.1858 14.5079C26.0308 14.1455 25.7726 13.8369 25.4432 13.6205C25.1139 13.4042 24.7281 13.2896 24.3341 13.2912H22.9208V12.7734C22.9206 12.5676 22.8387 12.3703 22.6932 12.2247C22.5477 12.0792 22.3503 11.9973 22.1445 11.9971H12.2676C12.1995 11.9966 12.1319 12.0097 12.0689 12.0355C12.0058 12.0614 11.9485 12.0995 11.9003 12.1477C11.8522 12.1958 11.814 12.2531 11.7882 12.3162C11.7623 12.3792 11.7493 12.4468 11.7498 12.5149C11.7521 12.6515 11.8075 12.7819 11.9041 12.8785C12.0007 12.9751 12.131 13.0304 12.2676 13.0328H21.8454V16.8553C21.8447 16.9678 21.8663 17.0794 21.9091 17.1836C21.9518 17.2877 22.0148 17.3824 22.0944 17.462C22.174 17.5416 22.2687 17.6046 22.3728 17.6473C22.477 17.6901 22.5886 17.7117 22.7011 17.711H26.1451V20.122C26.1453 20.1456 26.1407 20.1689 26.1318 20.1907C26.1228 20.2125 26.1096 20.2323 26.093 20.2489C26.0763 20.2656 26.0565 20.2788 26.0347 20.2877C26.0129 20.2967 25.9896 20.3012 25.9661 20.3011H25.3291C25.1613 20.0113 24.9204 19.7706 24.6305 19.603C24.3405 19.4353 24.0117 19.3466 23.6768 19.3457C23.3428 19.3509 23.0156 19.4413 22.7264 19.6086C22.4372 19.7758 22.1956 20.0142 22.0245 20.3011H16.7085C16.5407 20.0113 16.2998 19.7706 16.0099 19.603C15.7199 19.4353 15.3911 19.3466 15.0562 19.3457C14.7222 19.3509 14.395 19.4413 14.1058 19.6086C13.8166 19.7758 13.575 20.0142 13.4039 20.3011H11.5725C11.4352 20.3011 11.3035 20.3557 11.2064 20.4528C11.1092 20.5499 11.0547 20.6816 11.0547 20.819C11.0547 20.9563 11.1092 21.088 11.2064 21.1851C11.3035 21.2823 11.4352 21.3368 11.5725 21.3368H13.1418C13.1606 21.8311 13.3702 22.2989 13.7265 22.642C14.0829 22.985 14.5583 23.1767 15.053 23.1767C15.5477 23.1767 16.0231 22.985 16.3794 22.642C16.7358 22.2989 16.9454 21.8311 16.9642 21.3368H21.7642C21.783 21.8311 21.9926 22.2989 22.349 22.642C22.7054 22.985 23.1808 23.1767 23.6754 23.1767C24.1701 23.1767 24.6455 22.985 25.0019 22.642C25.3583 22.2989 25.5679 21.8311 25.5867 21.3368H26.0085C26.33 21.3351 26.6378 21.2065 26.865 20.979C27.0921 20.7515 27.2202 20.4435 27.2214 20.122V17.3343C27.2164 17.0617 27.1623 16.7921 27.0617 16.5386ZM15.0562 22.1325C14.883 22.1325 14.7136 22.0811 14.5695 21.9849C14.4255 21.8886 14.3132 21.7518 14.2469 21.5917C14.1806 21.4317 14.1633 21.2555 14.1971 21.0856C14.2309 20.9157 14.3143 20.7596 14.4368 20.6371C14.5593 20.5146 14.7154 20.4311 14.8853 20.3973C15.0553 20.3635 15.2314 20.3809 15.3915 20.4472C15.5515 20.5135 15.6883 20.6258 15.7846 20.7698C15.8808 20.9139 15.9322 21.0833 15.9322 21.2565C15.9303 21.4882 15.8374 21.7099 15.6735 21.8738C15.5096 22.0377 15.288 22.1306 15.0562 22.1325ZM23.6768 22.1325C23.5036 22.1325 23.3342 22.0811 23.1902 21.9849C23.0461 21.8886 22.9338 21.7518 22.8675 21.5917C22.8012 21.4317 22.7839 21.2555 22.8177 21.0856C22.8515 20.9157 22.9349 20.7596 23.0574 20.6371C23.1799 20.5146 23.336 20.4311 23.5059 20.3973C23.6759 20.3635 23.852 20.3809 24.0121 20.4472C24.1721 20.5135 24.3089 20.6258 24.4052 20.7698C24.5015 20.9139 24.5528 21.0833 24.5528 21.2565C24.5509 21.4882 24.458 21.7099 24.2941 21.8738C24.1303 22.0377 23.9086 22.1306 23.6768 22.1325ZM22.9005 14.3482H24.3138C24.5008 14.3454 24.6844 14.3989 24.8406 14.5018C24.9968 14.6046 25.1185 14.7521 25.1898 14.9251L25.9467 16.6789H22.9005V14.3482Z" fill="#FBB03B"/>
<path id="Path 190" d="M10.7769 15.2067H14.4406C14.5779 15.2067 14.7096 15.1521 14.8068 15.055C14.9039 14.9579 14.9584 14.8261 14.9584 14.6888C14.9584 14.5514 14.9039 14.4197 14.8068 14.3226C14.7096 14.2255 14.5779 14.1709 14.4406 14.1709H10.7769C10.7088 14.1704 10.6412 14.1835 10.5781 14.2093C10.5151 14.2352 10.4578 14.2733 10.4096 14.3215C10.3614 14.3697 10.3233 14.427 10.2975 14.49C10.2716 14.5531 10.2586 14.6206 10.259 14.6888C10.2614 14.8254 10.3167 14.9558 10.4133 15.0524C10.51 15.149 10.6403 15.2043 10.7769 15.2067Z" fill="#FBB03B"/>
<path id="Path 191" d="M9.80107 17.1963H13.4648C13.5328 17.1963 13.6001 17.1829 13.663 17.1569C13.7258 17.1309 13.7829 17.0927 13.831 17.0446C13.879 16.9966 13.9172 16.9395 13.9432 16.8766C13.9692 16.8138 13.9826 16.7465 13.9826 16.6785C13.9826 16.6105 13.9692 16.5431 13.9432 16.4803C13.9172 16.4175 13.879 16.3604 13.831 16.3123C13.7829 16.2642 13.7258 16.2261 13.663 16.2001C13.6001 16.1741 13.5328 16.1607 13.4648 16.1607H9.80107C9.73292 16.1602 9.66536 16.1732 9.60231 16.1991C9.53926 16.2249 9.48198 16.263 9.4338 16.3112C9.38561 16.3594 9.34749 16.4167 9.32163 16.4797C9.29578 16.5428 9.28273 16.6103 9.28322 16.6785C9.28559 16.8151 9.34091 16.9454 9.43752 17.042C9.53412 17.1386 9.66446 17.1939 9.80107 17.1963Z" fill="#FBB03B"/>
<path id="Path 192" d="M13.0264 18.6697C13.0269 18.6015 13.0138 18.534 12.988 18.4709C12.9621 18.4079 12.924 18.3506 12.8758 18.3024C12.8276 18.2543 12.7704 18.2161 12.7073 18.1903C12.6443 18.1644 12.5767 18.1514 12.5086 18.1519H8.82547C8.68812 18.1519 8.55641 18.2064 8.45929 18.3035C8.36218 18.4006 8.30762 18.5324 8.30762 18.6697C8.30762 18.807 8.36218 18.9387 8.45929 19.0358C8.55641 19.1329 8.68812 19.1875 8.82547 19.1875H12.4882C12.5583 19.1919 12.6286 19.1816 12.6945 19.1574C12.7604 19.1332 12.8206 19.0956 12.8712 19.0469C12.9218 18.9982 12.9617 18.9395 12.9884 18.8746C13.0151 18.8097 13.0281 18.7399 13.0264 18.6697Z" fill="#FBB03B"/>
</g>
</g>
</svg>
