<svg width="69" height="68" viewBox="0 0 69 68" fill="none" xmlns="http://www.w3.org/2000/svg">
<g id="Money">
<rect id="Rectangle 732" width="68.4207" height="68" rx="10" fill="white"/>
<g id="noun_guarantee_2519048">
<path id="Path 91" d="M47.546 22.9984L34.5018 19.0451C34.3078 18.985 34.1013 18.985 33.9073 19.0451L20.865 22.9984C20.6502 23.0662 20.462 23.2044 20.3285 23.3925C20.1949 23.5805 20.1232 23.8085 20.1238 24.0425V35.9137C20.1238 46.2427 33.3914 49.8204 33.9597 49.9672C34.1311 50.0126 34.3109 50.0108 34.4814 49.9621C35.2955 49.7495 48.297 46.1495 48.297 35.9137V24.0425C48.297 23.8072 48.2238 23.5783 48.0884 23.39C47.953 23.2018 47.7627 23.0644 47.546 22.9984ZM46.2102 35.9137C46.2102 43.8539 35.9639 47.2796 34.2104 47.786C32.4617 47.2796 22.2105 43.8701 22.2105 35.9137V24.8637L34.2104 21.2202L46.2102 24.8587V35.9137Z" fill="#333333"/>
<path id="Path 92" d="M33.1659 27.7023V28.8426C32.3907 28.9775 31.6926 29.4114 31.2102 30.0582C30.7278 30.705 30.4965 31.5172 30.5622 32.3336C30.6279 33.1499 30.9859 33.9106 31.5649 34.4646C32.1439 35.0185 32.9017 35.3251 33.6876 35.3235H35.2526C35.5294 35.3235 35.7947 35.4381 35.9904 35.642C36.1861 35.846 36.296 36.1226 36.296 36.4111C36.296 36.6995 36.1861 36.9761 35.9904 37.1801C35.7947 37.3841 35.5294 37.4987 35.2526 37.4987H32.1235C31.8468 37.4987 31.5814 37.6132 31.3857 37.8172C31.1901 38.0212 31.0801 38.2978 31.0801 38.5862C31.0801 38.8747 31.1901 39.1513 31.3857 39.3553C31.5814 39.5592 31.8468 39.6738 32.1235 39.6738H33.1659V40.7614C33.1659 41.0498 33.2758 41.3265 33.4715 41.5304C33.6672 41.7344 33.9326 41.849 34.2093 41.849C34.486 41.849 34.7514 41.7344 34.947 41.5304C35.1427 41.3265 35.2526 41.0498 35.2526 40.7614V39.6667C36.0828 39.6667 36.879 39.323 37.466 38.7111C38.053 38.0992 38.3828 37.2693 38.3828 36.404C38.3828 35.5387 38.053 34.7088 37.466 34.0969C36.879 33.485 36.0828 33.1412 35.2526 33.1412H33.6886C33.4118 33.1412 33.1465 33.0267 32.9508 32.8227C32.7551 32.6187 32.6452 32.3421 32.6452 32.0537C32.6452 31.7652 32.7551 31.4886 32.9508 31.2846C33.1465 31.0807 33.4118 30.9661 33.6886 30.9661H36.8187C37.0954 30.9661 37.3608 30.8515 37.5564 30.6475C37.7521 30.4436 37.862 30.1669 37.862 29.8785C37.862 29.5901 37.7521 29.3134 37.5564 29.1095C37.3608 28.9055 37.0954 28.7909 36.8187 28.7909H35.2536V27.7023C35.2536 27.5595 35.2266 27.4181 35.1742 27.2861C35.1218 27.1542 35.0449 27.0343 34.948 26.9333C34.8511 26.8323 34.7361 26.7522 34.6095 26.6975C34.4829 26.6429 34.3473 26.6147 34.2102 26.6147C34.0732 26.6147 33.9375 26.6429 33.811 26.6975C33.6844 26.7522 33.5694 26.8323 33.4725 26.9333C33.3756 27.0343 33.2987 27.1542 33.2463 27.2861C33.1939 27.4181 33.1669 27.5595 33.1669 27.7023H33.1659Z" fill="#333333"/>
</g>
</g>
</svg>
