<svg width="69" height="68" viewBox="0 0 69 68" fill="none" xmlns="http://www.w3.org/2000/svg">
<g id="Finest Quality">
<rect id="Rectangle 732" width="68.7894" height="68" rx="10" fill="white"/>
<g id="noun_materials_308312">
<path id="Ellipse 47" d="M27.5673 39.6376C28.1057 39.6376 28.5422 39.2111 28.5422 38.685C28.5422 38.1589 28.1057 37.7324 27.5673 37.7324C27.0289 37.7324 26.5924 38.1589 26.5924 38.685C26.5924 39.2111 27.0289 39.6376 27.5673 39.6376Z" fill="#333333"/>
<path id="Path 111" d="M50.5805 18H28.7208V28.6421H18.209V50H40.0677V39.3579H50.5805V18ZM48.88 22.5507L40.0696 31.1593V28.6421H36.8292L45.9429 19.7372L45.8673 19.6634H48.88V22.5516V22.5507ZM38.3663 39.3044C36.9058 39.0644 34.6385 38.794 33.8232 41.4782C33.1906 43.06 32.3267 44.5437 31.2583 45.8831C30.6568 46.6472 30.1368 47.4693 29.7061 48.3366H27.0109C27.0048 47.063 27.4344 45.8239 28.2314 44.816C28.6041 44.4048 29.0363 44.049 29.5143 43.7601C30.3108 43.3147 30.9887 42.6922 31.4931 41.9431C31.9975 41.194 32.3141 40.3394 32.4174 39.4484C32.7056 37.857 32.5084 36.218 31.8506 34.7352C31.2406 33.3395 31.03 31.8081 31.2413 30.3045H33.7334C33.8033 30.6442 33.8638 30.9959 33.9224 31.3669C34.2795 33.4679 34.7235 36.082 37.5812 37.5183C37.7409 37.5986 37.8448 37.654 37.9109 37.6918C38.0381 37.8209 38.1934 37.9203 38.3653 37.9826V39.3044H38.3663ZM24.5376 40.7813C24.4483 39.9338 24.5051 39.0776 24.7058 38.2484C24.9472 37.4208 25.3417 36.6434 25.8697 35.9546C27.0996 34.3154 27.7616 32.3352 27.7591 30.3027H29.5314C29.3276 32.0037 29.5759 33.7274 30.2522 35.3075C30.8084 36.5252 30.9782 37.8779 30.7396 39.1909C30.6709 39.859 30.4349 40.5003 30.0525 41.0583C29.6701 41.6162 29.1531 42.0737 28.547 42.3902C27.9303 42.7676 27.376 43.2345 26.9032 43.7748C25.8638 45.0769 25.3025 46.6826 25.3094 48.3339H23.5315C24.3527 45.9018 24.6941 43.3396 24.5376 40.7832V40.7813ZM38.3663 36.0414H38.3597C36.2624 34.9872 35.9412 33.0968 35.6011 31.0956C35.5567 30.8343 35.5067 30.5694 35.4604 30.3054H38.3663V36.0414ZM30.4232 27.1679L38.1065 19.6606H43.6076L34.4183 28.6393H30.4232V27.1679ZM35.7003 19.6624L30.4232 24.8187V19.6624H35.7003ZM22.5547 30.3045C22.155 31.7764 21.6236 33.2112 20.9666 34.5921C20.6199 35.3971 20.2581 36.238 19.9114 37.1094V30.3045H22.5547ZM19.9095 42.9939C20.4757 40.3193 21.356 37.7175 22.5329 35.2401C23.2995 33.6638 23.8853 32.0094 24.2797 30.3073H26.0558C26.0575 32.0123 25.494 33.672 24.4497 35.038C23.8146 35.8801 23.3418 36.8281 23.0544 37.8358C22.8087 38.8275 22.734 39.8523 22.8333 40.8681C22.978 43.4035 22.6115 45.9421 21.7545 48.3394H19.9114V42.9939H19.9095ZM31.6173 48.3366C31.9092 47.8751 32.3154 47.3046 32.6508 46.8366C33.8305 45.3551 34.7751 43.7083 35.4528 41.9518C35.8354 40.6918 36.5241 40.6826 38.252 40.9724L38.3653 40.9909V48.3366H31.6173ZM40.0677 33.5103L48.8781 24.9018V30.5057L41.5197 37.6955H40.0677V33.5103ZM43.9259 37.6955L48.8781 32.8568V37.6955H43.9259Z" fill="#333333"/>
</g>
</g>
</svg>
