<svg width="36" height="36" viewBox="0 0 36 36" fill="none" xmlns="http://www.w3.org/2000/svg">
<g id="Group 210">
<path id="Rectangle 662" d="M26.7692 0H9.23077C4.13276 0 0 4.13276 0 9.23077V26.7692C0 31.8672 4.13276 36 9.23077 36H26.7692C31.8672 36 36 31.8672 36 26.7692V9.23077C36 4.13276 31.8672 0 26.7692 0Z" fill="#FFF3DF"/>
<g id="noun_guarantee_2519048">
<path id="Path 91" d="M27.224 11.5654L19.1074 9.20418C18.987 9.16827 18.8586 9.16827 18.7382 9.20418L10.6151 11.5654C10.481 11.6054 10.3635 11.6879 10.2802 11.8004C10.197 11.9129 10.1525 12.0494 10.1536 12.1894V19.2796C10.1536 25.4503 18.4133 27.5872 18.7668 27.6722C18.8733 27.7003 18.9852 27.7003 19.0917 27.6722C19.5985 27.542 27.692 25.3922 27.692 19.2796V12.1894C27.6926 12.0486 27.6473 11.9115 27.5628 11.7988C27.4783 11.6862 27.3594 11.6042 27.224 11.5654ZM26.3932 19.2786C26.3932 24.0205 20.0148 26.0669 18.9228 26.3688C17.8317 26.0669 11.4523 24.0306 11.4523 19.2786V12.6796L18.9228 10.5039L26.3932 12.6768V19.2786Z" fill="#FBB03B"/>
<path id="Path 92" d="M18.2742 14.3718V15.0502C17.7941 15.1334 17.3626 15.3934 17.0647 15.779C16.7669 16.1646 16.6243 16.6478 16.665 17.1333C16.7058 17.6189 16.927 18.0715 17.285 18.402C17.643 18.7325 18.1119 18.9169 18.5991 18.9188H19.5739C19.7462 18.9188 19.9113 18.9873 20.0331 19.109C20.1549 19.2308 20.2233 19.396 20.2233 19.5682C20.2233 19.7404 20.1549 19.9056 20.0331 20.0274C19.9113 20.1492 19.7462 20.2176 19.5739 20.2176H17.6244C17.4521 20.2176 17.287 20.286 17.1652 20.4078C17.0434 20.5296 16.975 20.6948 16.975 20.867C16.975 21.0392 17.0434 21.2044 17.1652 21.3262C17.287 21.448 17.4521 21.5164 17.6244 21.5164H18.2705V22.1625C18.2705 22.3347 18.3389 22.4999 18.4607 22.6217C18.5825 22.7435 18.7477 22.8119 18.9199 22.8119C19.0921 22.8119 19.2573 22.7435 19.3791 22.6217C19.5009 22.4999 19.5693 22.3347 19.5693 22.1625V21.5164C20.0861 21.5164 20.5818 21.3111 20.9472 20.9456C21.3126 20.5802 21.5179 20.0846 21.5179 19.5678C21.5179 19.051 21.3126 18.5553 20.9472 18.1899C20.5818 17.8244 20.0861 17.6191 19.5693 17.6191H18.5982C18.426 17.6191 18.2608 17.5507 18.139 17.4289C18.0172 17.3072 17.9488 17.142 17.9488 16.9698C17.9488 16.7975 18.0172 16.6324 18.139 16.5106C18.2608 16.3888 18.426 16.3204 18.5982 16.3204H20.5469C20.7191 16.3204 20.8843 16.252 21.006 16.1302C21.1278 16.0084 21.1962 15.8432 21.1962 15.671C21.1962 15.4988 21.1278 15.3336 21.006 15.2118C20.8843 15.09 20.7191 15.0216 20.5469 15.0216H19.573V14.3755C19.573 14.2032 19.5046 14.0381 19.3828 13.9163C19.261 13.7945 19.0958 13.7261 18.9236 13.7261C18.7514 13.7261 18.5862 13.7945 18.4644 13.9163C18.3426 14.0381 18.2742 14.2032 18.2742 14.3755V14.3718Z" fill="#FBB03B"/>
</g>
</g>
</svg>
