<svg width="20" height="20" viewBox="0 0 20 20" fill="none" xmlns="http://www.w3.org/2000/svg">
<g id="Search">
<path id="noun_Search_2102816 (2)" d="M7.38833 14.7784C9.05942 14.7797 10.6814 14.2133 11.9881 13.1721L18.5738 19.7554C18.6514 19.8329 18.7435 19.8945 18.8448 19.9364C18.9462 19.9784 19.0548 20 19.1645 20C19.2742 20 19.3829 19.9784 19.4843 19.9364C19.5856 19.8945 19.6777 19.8329 19.7553 19.7554C19.8329 19.6778 19.8944 19.5858 19.9364 19.4844C19.9784 19.3831 20 19.2745 20 19.1648C20 19.0552 19.9784 18.9466 19.9364 18.8452C19.8944 18.7439 19.8329 18.6518 19.7553 18.5743L13.1696 11.991C14.2129 10.6821 14.7807 9.058 14.78 7.3845C14.7794 5.71099 14.2103 4.08729 13.166 2.77928C12.1218 1.47127 10.6642 0.556456 9.0319 0.184643C7.39963 -0.18717 5.68945 0.00604986 4.18138 0.732664C2.6733 1.45928 1.45672 2.67622 0.73083 4.18423C0.00494262 5.69224 -0.187229 7.40194 0.185783 9.03338C0.558795 10.6648 1.47489 12.1213 2.78405 13.1644C4.09321 14.2074 5.71786 14.7752 7.39196 14.7747L7.38833 14.7784ZM3.34204 3.35253C4.14233 2.55082 5.16256 2.00446 6.27361 1.78261C7.38465 1.56076 8.53656 1.67339 9.58354 2.10626C10.6305 2.53912 11.5255 3.27275 12.1552 4.21429C12.7849 5.15584 13.1211 6.26297 13.1211 7.39555C13.1211 8.52814 12.7849 9.63527 12.1552 10.5768C11.5255 11.5184 10.6305 12.252 9.58354 12.6849C8.53656 13.1177 7.38465 13.2303 6.27361 13.0085C5.16256 12.7867 4.14233 12.2403 3.34204 11.4386C2.80652 10.9101 2.38132 10.2806 2.09111 9.58656C1.80089 8.89253 1.65145 8.14779 1.65145 7.39555C1.65145 6.64332 1.80089 5.89858 2.09111 5.20455C2.38132 4.51051 2.80652 3.881 3.34204 3.35253Z" fill="#333333"/>
</g>
</svg>
